:version 1.10
:name ASF
:units
  mass 1
  length 1
  angle deg
:documentation
  ASF file generated by Kaydara
:root
  axis xyz
  order  tx ty tz rx ry rz
  position 0 0 0
  orientation 0 0 0
:bonedata
  begin
    id 1
    name lfemurDummy
    direction 0.61522 -0.761478 0.204097
    length 5.68318
    axis 0 -0 0 xyz
  end
  begin
    id 2
    name lfemur
    direction 0.34202 -0.939693 -5.84747e-008
    length 16.9147
    axis 0 -0 20 xyz
    dof rx ry rz
    limits( -inf , inf )
( -inf , inf )
( -inf , inf )

  end
  begin
    id 3
    name ltibia
    direction 0.34202 -0.939693 1.20839e-009
    length 18.0532
    axis 0 -0 20 xyz
    dof rz ry rx
    limits( -inf , inf )
( -inf , inf )
( -inf , inf )

  end
  begin
    id 4
    name lfoot
    direction 0.0841971 -0.23133 0.969225
    length 5.23822
    axis -90 7.62852e-016 20 xyz
    dof ry rx rz
    limits( -inf , inf )
( -inf , inf )
( -inf , inf )

  end
  begin
    id 5
    name ltoes
    direction 0 0 0
    length 0
    axis 0 0 0 xyz
    dof rz ry rx
    limits( -inf , inf )
( -inf , inf )
( -inf , inf )

  end
  begin
    id 6
    name rfemurDummy
    direction -0.625247 -0.75382 0.202044
    length 5.74091
    axis 0 -0 0 xyz
  end
  begin
    id 7
    name rfemur
    direction -0.34202 -0.939693 -1.47013e-008
    length 16.4922
    axis 0 -0 -20 xyz
    dof rx ry rz
    limits( -inf , inf )
( -inf , inf )
( -inf , inf )

  end
  begin
    id 8
    name rtibia
    direction -0.34202 -0.939693 -7.74345e-010
    length 18.2421
    axis 0 -0 -20 xyz
    dof rz ry rx
    limits( -inf , inf )
( -inf , inf )
( -inf , inf )

  end
  begin
    id 9
    name rfoot
    direction -0.124331 -0.341598 0.931586
    length 5.45787
    axis -90 -7.62852e-016 -20 xyz
    dof ry rx rz
    limits( -inf , inf )
( -inf , inf )
( -inf , inf )

  end
  begin
    id 10
    name rtoes
    direction 0 0 0
    length 0
    axis 0 0 0 xyz
    dof rz ry rx
    limits( -inf , inf )
( -inf , inf )
( -inf , inf )

  end
  begin
    id 11
    name lowerbackDummy
    direction 0 0 0
    length 0
    axis 0 -0 0 xyz
  end
  begin
    id 12
    name lowerback
    direction -0.0218484 0.994884 -0.0986304
    length 4.45607
    axis 0 -0 0 xyz
    dof rx ry rz
    limits( -inf , inf )
( -inf , inf )
( -inf , inf )

  end
  begin
    id 13
    name upperback
    direction -0.00973057 0.999717 -0.0217111
    length 4.47449
    axis 0 -0 0 xyz
    dof rx ry rz
    limits( -inf , inf )
( -inf , inf )
( -inf , inf )

  end
  begin
    id 14
    name thorax
    direction -0.000928171 0.999699 0.0245198
    length 4.50973
    axis 0 -0 0 xyz
    dof rx ry rz
    limits( -inf , inf )
( -inf , inf )
( -inf , inf )

  end
  begin
    id 15
    name rclavicle
    direction -0.9009 0.425937 -0.0834055
    length 7.28587
    axis 0 -0 0 xyz
    dof rx ry rz
    limits( -inf , inf )
( -inf , inf )
( -inf , inf )

  end
  begin
    id 16
    name rhumerus
    direction -1 -2.23604e-007 -1.42637e-007
    length 13.5704
    axis 180 30 90 xyz
    dof rx ry rz
    limits( -inf , inf )
( -inf , inf )
( -inf , inf )

  end
  begin
    id 17
    name rradius
    direction -1 5.68281e-008 -4.4952e-007
    length 8.06782
    axis 180 30 90 xyz
    dof rz ry rx
    limits( -inf , inf )
( -inf , inf )
( -inf , inf )

  end
  begin
    id 18
    name rwrist
    direction -1 1.51393e-007 1.38143e-007
    length 4.03391
    axis -90 -90 0 xyz
    dof rz rx ry
    limits( -inf , inf )
( -inf , inf )
( -inf , inf )

  end
  begin
    id 19
    name rthumb
    direction 0 0 0
    length 0
    axis 0 0 0 xyz
    dof ry rx rz
    limits( -inf , inf )
( -inf , inf )
( -inf , inf )

  end
  begin
    id 20
    name rhand
    direction -1 -3.34077e-007 -5.59631e-007
    length 1.29744
    axis -90 -90 0 xyz
    dof ry rx rz
    limits( -inf , inf )
( -inf , inf )
( -inf , inf )

  end
  begin
    id 21
    name rfingers
    direction 0 0 0
    length 0
    axis 0 0 0 xyz
    dof rz ry rx
    limits( -inf , inf )
( -inf , inf )
( -inf , inf )

  end
  begin
    id 22
    name lclavicle
    direction 0.940017 0.332249 -0.0773232
    length 8.29589
    axis 0 -0 0 xyz
    dof rx ry rz
    limits( -inf , inf )
( -inf , inf )
( -inf , inf )

  end
  begin
    id 23
    name lhumerus
    direction 1 7.41158e-008 -1.44768e-008
    length 12.0042
    axis 180 -30 -90 xyz
    dof rx ry rz
    limits( -inf , inf )
( -inf , inf )
( -inf , inf )

  end
  begin
    id 24
    name lradius
    direction 1 -1.32972e-007 3.10821e-007
    length 8.1902
    axis 180 -30 -90 xyz
    dof rz ry rx
    limits( -inf , inf )
( -inf , inf )
( -inf , inf )

  end
  begin
    id 25
    name lwrist
    direction 1 3.08957e-007 4.01394e-007
    length 4.09509
    axis -90 90 0 xyz
    dof rz rx ry
    limits( -inf , inf )
( -inf , inf )
( -inf , inf )

  end
  begin
    id 26
    name lthumb
    direction 0 0 0
    length 0
    axis 0 0 0 xyz
    dof ry rx rz
    limits( -inf , inf )
( -inf , inf )
( -inf , inf )

  end
  begin
    id 27
    name lhand
    direction 1 -1.64125e-007 -6.99514e-007
    length 1.37229
    axis -90 90 0 xyz
    dof ry rx rz
    limits( -inf , inf )
( -inf , inf )
( -inf , inf )

  end
  begin
    id 28
    name lfingers
    direction 0 0 0
    length 0
    axis 0 0 0 xyz
    dof rz ry rx
    limits( -inf , inf )
( -inf , inf )
( -inf , inf )

  end
  begin
    id 29
    name lowerneck
    direction -0.030798 0.998024 0.0547665
    length 3.93918
    axis 0 -0 0 xyz
    dof rx ry rz
    limits( -inf , inf )
( -inf , inf )
( -inf , inf )

  end
  begin
    id 30
    name upperneck
    direction 0.0531588 0.996611 -0.0627736
    length 3.95491
    axis 0 -0 0 xyz
    dof rx ry rz
    limits( -inf , inf )
( -inf , inf )
( -inf , inf )

  end
  begin
    id 31
    name head
    direction 0 0 0
    length 0
    axis 0 0 0 xyz
    dof rx ry rz
    limits( -inf , inf )
( -inf , inf )
( -inf , inf )

  end
:hierarchy
  begin
    root lfemurDummy rfemurDummy lowerbackDummy
    lfemurDummy lfemur
    lfemur ltibia
    ltibia lfoot
    lfoot ltoes
    rfemurDummy rfemur
    rfemur rtibia
    rtibia rfoot
    rfoot rtoes
    lowerbackDummy lowerback
    lowerback upperback
    upperback thorax
    thorax rclavicle lclavicle lowerneck
    rclavicle rhumerus
    rhumerus rradius
    rradius rwrist
    rwrist rthumb rhand
    rhand rfingers
    lclavicle lhumerus
    lhumerus lradius
    lradius lwrist
    lwrist lthumb lhand
    lhand lfingers
    lowerneck upperneck
    upperneck head
  end

:SAMPLES-PER-SECOND 30
:FULLY-SPECIFIED
:DEGREES
96
root  -7.151444503 41.36866772 9.07662234 22.9050293 -50.61099243 -21.86798096
lowerback  8.465049744 3.879489899 -3.404629946
upperback  4.217999935 4.686399937 -4.398009777
thorax  -0.2588849962 2.271899939 -3.042140007
lowerneck  6.791480064 3.532759905 -9.884849548
upperneck  11.42430019 2.783979893 17.41279984
head  1.71123004 1.246090055 7.000060081
lclavicle  0 -9.442270133e-015 7.951389973e-016
lhumerus  -6.857789993 -27.66379929 74.61969757
lradius  2.589216466e-031 -2.401000235e-031 137.1600037
lwrist  -7.062250077e-031 -1.765562519e-031 12.58940029
lhand  -1.496451383e-031 -27.76390076 20.11240005
lfingers  90 7.125020027 -90
lthumb  89.89689403 5.08795885 91.16245106
rclavicle  0 -9.442270133e-015 7.951389973e-016
rhumerus  -26.9375 12.09549999 -85.20880127
rradius  -1.20557271e-031 3.318951413e-031 109.9629974
rwrist  1.059337512e-030 -3.531125038e-031 2.697590113
rhand  -7.920061211e-032 -33.2840004 9.303460121
rfingers  -90 -7.125020027 -90
rthumb  -92.93752616 -24.25625642 -97.11982154
rfemur  2.883850098 15.17930031 22.80010033
rtibia  -0 0 31.67169952
rfoot  -5.376916874e-032 34.82509995 1.161599994
rtoes  5.373923086 19.29304026 -105.8922705
lfemur  -36.54399872 -7.254859924 6.453010082
ltibia  -0 0 29.80319977
lfoot  -0 8.062950134 13.41020012
ltoes  -4.250644065 -19.5611806 -102.515957
97
root  -7.04028888 41.50377709 9.009732975 23.22302246 -51.19599915 -21.97198486
lowerback  8.396630287 3.580140114 -3.400769949
upperback  4.209780216 4.301459789 -4.218359947
thorax  -0.2551479936 2.079699993 -2.820050001
lowerneck  6.449560165 3.751470089 -10.01140022
upperneck  11.09899998 3.179719925 16.91939926
head  1.634580016 1.440719962 6.849490166
lclavicle  0 -9.442270133e-015 7.951389973e-016
lhumerus  -6.99202013 -25.94890022 74.58750153
lradius  2.617942814e-031 -2.36964543e-031 137.8500061
lwrist  -7.062250077e-031 -0 13.03209972
lhand  -1.496451383e-031 -27.76390076 20.11240005
lfingers  90 7.125020027 -90
lthumb  89.89689403 5.08795885 91.16245106
rclavicle  0 -9.442270133e-015 7.951389973e-016
rhumerus  -28.40950012 12.01080036 -85.22109985
rradius  -1.301039941e-031 3.282703019e-031 111.6200027
rwrist  1.059337512e-030 -3.531125038e-031 1.913630009
rhand  -7.920061211e-032 -33.2840004 9.303460121
rfingers  -90 -7.125020027 -90
rthumb  -92.93752616 -24.25625642 -97.11982154
rfemur  2.772680044 15.04570007 22.46179962
rtibia  -0 0 31.47520065
rfoot  -5.230602701e-032 32.44979858 -0.2421589941
rtoes  5.373923086 19.29304026 -105.8922705
lfemur  -36.15029907 -8.432229996 7.135369778
ltibia  -0 0 29.04400063
lfoot  -0 7.779079914 14.77359962
ltoes  -4.250644065 -19.5611806 -102.515957
98
root  -6.926266978 41.63800037 8.943911425 23.91998291 -51.94799805 -22.37200928
lowerback  8.127340317 3.332940102 -3.267260075
upperback  4.167540073 4.008790016 -4.014389992
thorax  -0.1647469997 1.936079979 -2.641740084
lowerneck  5.847119808 4.025849819 -9.79681015
upperneck  11.53100014 3.63718009 15.74740028
head  1.846510053 1.685230017 6.444479942
lclavicle  0 -9.442270133e-015 7.951389973e-016
lhumerus  -7.379779816 -24.36919975 74.76879883
lradius  2.653254917e-031 -2.330039138e-031 138.7109985
lwrist  0 -1.765562519e-031 13.09440041
lhand  -1.496451383e-031 -27.76390076 20.11240005
lfingers  90 7.125020027 -90
lthumb  89.89689403 5.08795885 91.16245106
rclavicle  0 -9.442270133e-015 7.951389973e-016
rhumerus  -29.74550056 11.82970047 -85.28800201
rradius  -1.40085162e-031 3.241366807e-031 113.3730011
rwrist  3.531125038e-031 -3.531125038e-031 1.51312995
rhand  -7.920061211e-032 -33.2840004 9.303460121
rfingers  -90 -7.125020027 -90
rthumb  -92.93752616 -24.25625642 -97.11982154
rfemur  2.391989946 14.91009998 22.12669945
rtibia  -0 0 31.43689919
rfoot  -6.349327995e-032 29.66069984 -1.305199981
rtoes  5.373923086 19.29304026 -105.8922705
lfemur  -35.9137001 -8.90942955 7.721099854
ltibia  -0 0 28.6772995
lfoot  -0 7.64715004 15.08170033
ltoes  -4.250644065 -19.5611806 -102.515957
99
root  -6.802999692 41.7304452 8.867844259 24.55102539 -52.82700348 -22.75500488
lowerback  7.601160049 3.04647994 -3.230240107
upperback  4.450349808 3.681839943 -3.780019999
thorax  0.3969259858 1.76733005 -2.353660107
lowerneck  4.853750229 4.313509941 -9.978639603
upperneck  11.47360039 4.174739838 14.93420029
head  1.952620029 1.969359994 6.222499847
lclavicle  0 -9.442270133e-015 7.951389973e-016
lhumerus  -7.157740116 -22.30599976 74.67549896
lradius  2.683366729e-031 -2.295296721e-031 139.4570007
lwrist  -7.062250077e-031 -0 13.05560017
lhand  -1.496451383e-031 -27.76390076 20.11240005
lfingers  90 7.125020027 -90
lthumb  89.89689403 5.08795885 91.16245106
rclavicle  0 -9.442270133e-015 7.951389973e-016
rhumerus  -30.30430031 11.76280022 -85.20649719
rradius  -1.500746973e-031 3.196342059e-031 115.151001
rwrist  1.059337512e-030 -3.531125038e-031 1.282930017
rhand  -7.920061211e-032 -33.2840004 9.303460121
rfingers  -90 -7.125020027 -90
rthumb  -92.93752616 -24.25625642 -97.11982154
rfemur  2.071840048 14.79629993 21.72170067
rtibia  -0 0 31.47830009
rfoot  -7.387350957e-032 26.3314991 -2.240869999
rtoes  5.373923086 19.29304026 -105.8922705
lfemur  -35.74670029 -8.858980179 8.026410103
ltibia  -0 0 28.79179955
lfoot  -0 7.411699772 14.35760021
ltoes  -4.250644065 -19.5611806 -102.515957
100
root  -6.677200287 41.78288978 8.803444209 25.01599121 -53.96099854 -22.98498535
lowerback  7.30712986 2.896100044 -3.118880033
upperback  4.554009914 3.510230064 -3.814140081
thorax  0.6721519828 1.681550026 -2.419680119
lowerneck  4.135399818 4.518909931 -9.846540451
upperneck  11.24330044 4.58920002 14.3192997
head  1.980870008 2.193300009 6.007060051
lclavicle  0 -9.442270133e-015 7.951389973e-016
lhumerus  -6.905179977 -20.48419952 74.21549988
lradius  2.710260022e-031 -2.263478441e-031 140.1329956
lwrist  -1.412450015e-030 -1.765562519e-031 13.21539974
lhand  -1.496451383e-031 -27.76390076 20.11240005
lfingers  90 7.125020027 -90
lthumb  89.89689403 5.08795885 91.16245106
rclavicle  0 -9.442270133e-015 7.951389973e-016
rhumerus  -30.93429947 11.29139996 -85.44059753
rradius  -1.605293381e-031 3.145135482e-031 117.0400009
rwrist  3.531125038e-031 -0 1.23973
rhand  -7.920061211e-032 -33.2840004 9.303460121
rfingers  -90 -7.125020027 -90
rthumb  -92.93752616 -24.25625642 -97.11982154
rfemur  1.822129965 14.70079994 21.07970047
rtibia  -0 0 31.61450005
rfoot  -4.785720506e-032 22.73419952 -3.438009977
rtoes  5.373923086 19.29304026 -105.8922705
lfemur  -35.51060104 -8.325900078 7.840569973
ltibia  -0 0 29.38780022
lfoot  -0 7.39729023 12.34189987
ltoes  -4.250644065 -19.5611806 -102.515957
101
root  -6.546222507 41.81244317 8.760288569 25.16497803 -55.37400055 -23.11401367
lowerback  7.346109867 2.9681499 -2.914669991
upperback  4.514150143 3.60710001 -4.049439907
thorax  0.6397089958 1.735290051 -2.786770105
lowerneck  3.931230068 4.602670193 -9.073530197
upperneck  10.97809982 4.817540169 13.47490025
head  1.964849949 2.321490049 5.605879784
lclavicle  0 -9.442270133e-015 7.951389973e-016
lhumerus  -6.779160023 -19.29310036 73.71849823
lradius  2.733345823e-031 -2.235545717e-031 140.720993
lwrist  0 -1.765562519e-031 13.41499996
lhand  -1.496451383e-031 -27.76390076 20.11240005
lfingers  90 7.125020027 -90
lthumb  89.89689403 5.08795885 91.16245106
rclavicle  0 -9.442270133e-015 7.951389973e-016
rhumerus  -31.61450005 10.34790039 -85.61889648
rradius  -1.7075555e-031 3.090808673e-031 118.9189987
rwrist  1.059337512e-030 -0 1.22431004
rhand  -7.920061211e-032 -33.2840004 9.303460121
rfingers  -90 -7.125020027 -90
rthumb  -92.93752616 -24.25625642 -97.11982154
rfemur  1.829939961 14.57190037 20.19309998
rtibia  -0 0 31.83580017
rfoot  -4.670463193e-032 19.07909966 -5.37721014
rtoes  5.373923086 19.29304026 -105.8922705
lfemur  -34.97850037 -7.620289803 7.238090038
ltibia  -0 0 30.43040085
lfoot  -0 7.552140236 9.339920044
ltoes  -4.250644065 -19.5611806 -102.515957
